<svg width="161" height="161" fill="none" viewBox="0 0 161 161" xmlns="http://www.w3.org/2000/svg">
<path d="M80.5665 0.360229C36.3059 0.360229 0.426758 36.2379 0.426758 80.5C0.426758 124.762 36.3074 160.64 80.5665 160.64C124.829 160.64 160.714 124.762 160.714 80.5C160.714 36.2379 124.829 0.360229 80.5665 0.360229ZM84.8178 20.4817C86.0771 20.4642 86.904 20.5329 87.6886 20.6819C89.6345 21.0588 89.766 21.3028 88.9566 23.0384C88.1517 24.7623 88.1926 24.3737 88.1677 30.6119C88.1473 35.8391 88.0319 37.8304 87.7514 38.1094C87.7222 38.1386 87.1466 38.3095 86.4731 38.4863C84.2524 39.0707 84.3109 39.0006 84.0479 41.5791C83.9682 42.2589 83.9034 42.9403 83.8536 43.623C83.8653 43.6347 86.1429 44.1197 88.9157 44.7011L93.9604 45.7632L99.4286 48.8444L101.437 52.149C102.539 53.9635 103.456 55.4478 103.48 55.4478C103.497 55.4478 105.066 54.8532 106.955 54.1286C108.85 53.4039 110.418 52.8225 110.443 52.8444C110.494 52.8955 112.137 64.1725 112.096 64.2076C111.863 64.4063 100.774 67.6758 100.511 67.6262C100.326 67.5897 98.3388 66.998 96.0948 66.3069C93.8522 65.6174 92.0042 65.0739 91.9808 65.0914C91.9633 65.1148 91.8493 67.4202 91.7354 70.2223C91.6689 71.9273 91.589 73.6318 91.4958 75.3355C91.4841 75.3472 90.5637 76.0996 89.465 77.0185L87.4548 78.684L85.8799 78.6343C85.018 78.5993 80.9376 78.5248 76.8177 78.4619L69.3304 78.348L66.9053 76.8476C65.8544 76.197 64.7986 75.5483 63.7379 74.9016C62.8424 74.3596 62.8307 74.6328 63.8241 72.4648C64.2741 71.4655 64.651 70.5875 64.651 70.513C64.651 70.4224 67.8987 69.2405 73.5072 67.2887C78.6497 65.4961 82.2436 64.1959 82.0742 64.1784C81.3495 64.1155 64.6014 63.6992 63.7029 63.7225C62.0155 63.7664 58.2083 61.8672 56.3076 60.0351C56.0958 59.8306 55.7598 49.5237 55.9599 49.3411C58.5896 46.9451 60.2171 45.7735 63.0703 44.2336L65.9527 42.6704L69.9236 42.8297C73.3874 42.967 73.9353 42.967 74.2158 42.8297C74.3911 42.7376 76.321 41.9341 78.5066 41.0371L82.4847 39.4052L78.7184 39.1657C77.4041 39.0759 76.0892 38.9941 74.7739 38.9202C74.5255 38.9261 72.1325 35.582 72.0244 35.0853C71.7885 33.6644 71.566 32.2414 71.3567 30.8164L70.7797 26.9478L72.4744 24.0712C73.7936 21.8287 74.2158 21.1888 74.3926 21.183C74.5182 21.1786 76.7491 21.0077 79.351 20.8017C81.8682 20.6044 83.557 20.4993 84.8178 20.4817ZM116.326 44.6559L118.215 44.7187C119.259 44.7479 120.608 44.8209 121.21 44.8794C122.386 44.9919 123.157 45.2037 123.544 45.512C123.778 45.7004 123.905 46.932 124.161 51.68L124.184 52.1607L119.122 54.2995C116.332 55.4756 113.969 56.469 113.871 56.4968C113.655 56.5713 110.934 52.7363 111.093 52.5887C111.144 52.542 111.931 52.2177 112.839 51.8685C113.411 51.6535 113.982 51.4329 114.551 51.2067C114.586 51.1848 114.551 50.26 114.482 49.1526C114.409 48.0394 114.38 47.081 114.419 47.024C114.454 46.9612 114.899 46.4017 115.401 45.7852L116.326 44.6559ZM116.589 48.2907C116.542 48.2907 116.53 48.5244 116.565 48.8108C116.601 49.1029 116.691 50.0321 116.766 50.8765C116.839 51.7268 116.913 52.4397 116.931 52.4631C116.976 52.5201 121.162 51.3309 121.153 51.2651C121.15 51.1892 116.697 48.2907 116.589 48.2907ZM89.316 54.2717C89.1174 54.3769 88.5461 55.4726 87.4037 57.6611C86.5286 59.3456 85.652 61.0213 84.774 62.7014L84.1166 63.9505L86.2627 62.2777L88.4088 60.6122L88.4716 59.8642C88.5052 59.4595 88.739 58.0892 88.9902 56.8225C89.3409 55.0504 89.5147 54.1666 89.316 54.2717ZM60.7255 81.7271C61.06 81.7461 61.7467 81.9697 63.2646 82.4226C64.9647 82.922 66.6749 83.3867 68.394 83.8163C69.8154 84.164 71.0426 84.4781 71.1171 84.5175C71.2019 84.5628 70.9126 84.985 70.3005 85.7053L69.3479 86.8229L68.2172 89.6542L67.082 92.4782L70.5182 92.3993C72.4115 92.3584 73.9645 92.3189 73.9704 92.3073C73.9762 92.3014 74.0901 91.2291 74.2216 89.9274C74.4379 87.7754 74.4846 87.5358 74.7067 87.3371C74.8425 87.2173 75.7512 86.5336 76.7315 85.8178L78.5066 84.5234L80.3736 85.847L82.2334 87.1662L82.4336 89.6761C82.5358 91.0582 82.6337 92.1875 82.6439 92.1875L85.6462 92.1538L88.6367 92.1188L86.8441 88.4036C85.858 86.3671 85.0647 84.6782 85.0866 84.6607C85.1041 84.6373 86.2744 84.5058 87.6886 84.3641C90.0918 84.1231 90.3767 84.0719 92.1006 83.546C93.1101 83.2392 94.0056 82.9879 94.0875 82.9879C94.1693 82.9879 96.2891 85.3284 98.8004 88.1933C104.342 94.5045 104.381 94.5498 108.159 98.0765C114.979 104.452 115.902 105.644 116.903 109.326C117.553 111.709 117.826 112.383 120.167 117.355C121.382 119.934 122.495 122.498 122.918 123.695C123.316 124.835 123.444 124.625 121.793 125.595C121.205 125.938 120.72 126.28 120.72 126.354C120.715 126.782 122.146 127.376 126.9 128.923C133.046 130.92 134.069 131.668 132.636 133.116C131.603 134.157 130.89 134.264 124.96 134.264C118.882 134.264 117.239 134.087 116.56 133.363C116.08 132.854 115.921 133.19 118.409 129.459C119.63 127.639 120.606 126.131 120.589 126.121C120.565 126.103 118.546 126.281 116.092 126.508L111.629 126.936L108.216 126.644C106.339 126.487 104.754 126.313 104.689 126.268C104.627 126.224 102.527 121.977 100.016 116.835L95.4505 107.488L88.5564 103.105L81.668 98.7222L78.8046 98.7909C77.5617 98.8144 76.3192 98.8582 75.0777 98.9224L74.2158 98.9896L68.4509 105.336L62.6948 111.682L55.5202 118.563L48.347 125.453L46.1892 125.726L44.0328 125.995L39.5638 125.361C37.1094 125.013 35.0846 124.739 35.067 124.756C35.0495 124.774 36.0999 126.223 37.4016 127.975C38.696 129.732 39.7464 131.216 39.7289 131.285C39.7143 131.354 39.3242 131.986 38.8728 132.695L38.0459 133.983L33.6967 133.978C27.0786 133.967 26.9515 133.91 27.9114 131.57C28.373 130.451 28.5177 130.292 30.2781 128.945C33.3285 126.612 34.4169 125.681 34.6901 125.161C34.7778 125.007 34.5645 124.78 33.4469 123.849C32.7047 123.227 32.0999 122.639 32.1057 122.541C32.1349 121.988 47.2454 101.364 49.8474 98.3336C51.7086 96.132 53.522 93.8904 55.2864 91.6104L58.0943 87.9537L59.1039 85.3853C59.5192 84.3438 59.9166 83.2952 60.296 82.2399C60.4085 81.8893 60.3909 81.7067 60.7255 81.7271Z" />
</svg>
