<svg width="131" height="139" viewBox="0 0 131 139" fill="none" xmlns="http://www.w3.org/2000/svg">
<path d="M130.549 4.33952C130.549 4.31472 130.557 4.29147 130.557 4.26667C130.557 3.14398 130.111 2.0672 129.317 1.2729C128.524 0.478601 127.448 0.03175 126.325 0.0305176H49.3164V0.0475671L0.44801 48.9175H0.443359V134.733H0.44801C0.449652 135.856 0.896799 136.934 1.6913 137.728C2.4858 138.521 3.56273 138.967 4.68571 138.968H126.328C127.293 138.966 128.228 138.635 128.979 138.029C129.73 137.423 130.251 136.578 130.456 135.635H130.549V134.805C130.549 134.781 130.555 134.76 130.555 134.736C130.555 134.713 130.549 134.691 130.549 134.668V4.33952ZM92.8404 15.4639H115.115V53.5892L87.0403 25.5125L92.8404 15.4639ZM49.3335 53.1521C50.4533 53.148 51.526 52.7005 52.3167 51.9075C53.1074 51.1144 53.5518 50.0405 53.5526 48.9206V15.4639H83.914L41.8005 88.4069L15.8767 62.4831V53.1521H49.3335ZM15.8767 123.536V73.4168L37.7984 95.3385L21.5203 123.536H15.8767ZM30.4467 123.536L83.0382 32.4441L115.117 64.5229V123.536H30.4467Z" />
</svg>
