<svg width="198" height="137" viewBox="0 0 198 137" fill="none" xmlns="http://www.w3.org/2000/svg">
<path d="M198 25.5V112.125C198 115.541 197.355 118.731 196.066 121.696C194.777 124.661 193.005 127.271 190.749 129.527C188.493 131.783 185.851 133.556 182.821 134.845C179.792 136.134 176.602 136.811 173.25 136.875H24.0732C20.7861 136.875 17.6924 136.23 14.792 134.941C11.8916 133.652 9.3457 131.944 7.1543 129.817C4.96289 127.69 3.22266 125.145 1.93359 122.18C0.644531 119.215 0 116.089 0 112.802V0.75H173.25V25.5H198ZM185.625 37.875H173.25V105.938C173.25 107.613 172.638 109.063 171.413 110.288C170.188 111.513 168.738 112.125 167.062 112.125C165.387 112.125 163.937 111.513 162.712 110.288C161.487 109.063 160.875 107.613 160.875 105.938V13.125H12.375V112.802C12.375 114.413 12.665 115.928 13.2451 117.346C13.8252 118.764 14.6631 119.988 15.7588 121.02C16.8545 122.051 18.1113 122.889 19.5293 123.533C20.9473 124.178 22.4619 124.5 24.0732 124.5H173.25C174.99 124.5 176.602 124.178 178.084 123.533C179.566 122.889 180.855 122.019 181.951 120.923C183.047 119.827 183.949 118.506 184.658 116.959C185.367 115.412 185.689 113.801 185.625 112.125V37.875ZM148.5 37.875H24.75V25.5H148.5V37.875ZM148.5 112.125H99V99.75H148.5V112.125ZM148.5 87.375H99V75H148.5V87.375ZM148.5 62.625H99V50.25H148.5V62.625ZM86.625 112.125H24.75V49.96H86.625V112.125ZM37.125 99.75H74.25V62.335H37.125V99.75Z" />
</svg>
