<svg width="182" height="156" viewBox="0 0 182 156" fill="none" xmlns="http://www.w3.org/2000/svg">
<path d="M82.6055 33.255V144.838M82.4167 142.375C80.5112 142.375 76.6057 140.298 68.8121 136.143C60.8897 131.92 49.9459 127.715 35.9207 125.071C20.1789 122.118 12.3166 120.642 8.73733 116.273C5.16667 111.896 5.16667 104.909 5.16667 90.9093V35.9159C5.16667 20.6118 5.16667 12.9555 10.7372 8.2432C16.2992 3.53095 22.8397 4.75837 35.9122 7.2132C61.7308 12.0714 77.1122 22.2255 82.4167 28.0535C87.7212 22.2255 103.102 12.0714 128.921 7.22179C141.994 4.75837 148.534 3.53095 154.096 8.2432C159.667 12.9555 159.667 20.6032 159.667 35.9159V60.8333M167.083 86.0683L173.048 92.0079C174.246 93.201 175.197 94.6189 175.845 96.1802C176.494 97.7415 176.828 99.4156 176.828 101.106C176.828 102.797 176.494 104.471 175.845 106.032C175.197 107.594 174.246 109.012 173.048 110.205L141.788 141.929C139.329 144.385 136.184 146.037 132.766 146.667L113.394 150.855C112.691 151.012 111.96 150.99 111.269 150.791C110.577 150.592 109.946 150.221 109.435 149.715C108.924 149.208 108.548 148.58 108.343 147.89C108.138 147.2 108.11 146.469 108.261 145.765L112.381 126.582C113.025 123.174 114.681 120.041 117.145 117.595L148.8 86.0597C151.229 83.6434 154.515 82.2869 157.941 82.2869C161.367 82.2869 164.654 83.652 167.083 86.0683Z"  fill="none" stroke-width="10" stroke-linecap="round" stroke-linejoin="round"/>
</svg>
