<svg width="238" height="239" viewBox="0 0 238 239" fill="none" xmlns="http://www.w3.org/2000/svg">
<path d="M119.08 0.790405C53.5173 0.790405 0.370117 53.9354 0.370117 119.5C0.370117 185.065 53.5195 238.21 119.08 238.21C184.644 238.21 237.8 185.065 237.8 119.5C237.8 53.9354 184.644 0.790405 119.08 0.790405ZM125.377 30.596C127.243 30.5701 128.467 30.6718 129.63 30.8925C132.512 31.4508 132.707 31.8122 131.508 34.3831C130.316 36.9367 130.376 36.3611 130.339 45.6016C130.309 53.3447 130.138 56.2943 129.723 56.7076C129.679 56.7509 128.827 57.0041 127.829 57.2659C124.54 58.1316 124.626 58.0277 124.237 61.8473C124.119 62.8542 124.023 63.8636 123.949 64.8748C123.966 64.8921 127.34 65.6106 131.447 66.4719L138.92 68.0451L147.02 72.6091L149.996 77.5043C151.627 80.192 152.986 82.3907 153.021 82.3907C153.047 82.3907 155.371 81.5099 158.169 80.4366C160.976 79.3632 163.298 78.5019 163.335 78.5343C163.411 78.6101 165.845 95.3145 165.785 95.3664C165.438 95.6607 149.013 100.504 148.624 100.43C148.349 100.376 145.406 99.4998 142.082 98.4762C138.76 97.4548 136.022 96.6497 135.988 96.6757C135.962 96.7103 135.793 100.125 135.624 104.276C135.526 106.802 135.407 109.326 135.269 111.85C135.252 111.867 133.888 112.982 132.261 114.343L129.283 116.81L126.95 116.737C125.674 116.685 119.629 116.574 113.527 116.481L102.436 116.312L98.8436 114.09C97.2869 113.126 95.723 112.165 94.1519 111.207C92.8254 110.404 92.808 110.809 94.2796 107.598C94.9461 106.117 95.5045 104.817 95.5045 104.707C95.5045 104.572 100.315 102.822 108.623 99.9304C116.241 97.2751 121.564 95.3491 121.313 95.3231C120.24 95.2301 95.4309 94.6133 94.1 94.648C91.6005 94.7129 85.961 91.8996 83.1455 89.1859C82.8317 88.8829 82.334 73.6154 82.6305 73.3449C86.5258 69.7959 88.9365 68.0603 93.163 65.7794L97.4326 63.4638L103.315 63.6997C108.446 63.9031 109.257 63.9031 109.673 63.6997C109.932 63.5634 112.791 62.3731 116.028 61.0444L121.921 58.6271L116.342 58.2722C114.395 58.1392 112.448 58.018 110.499 57.9087C110.131 57.9173 106.587 52.9638 106.426 52.228C106.077 50.1233 105.747 48.0155 105.438 45.9046L104.583 40.1742L107.093 35.9131C109.047 32.5913 109.673 31.6434 109.934 31.6348C110.121 31.6283 113.425 31.3751 117.279 31.07C121.008 30.7778 123.51 30.622 125.377 30.596ZM172.05 66.4048L174.848 66.4978C176.395 66.5411 178.392 66.6493 179.284 66.7359C181.026 66.9025 182.169 67.2163 182.742 67.6729C183.088 67.9521 183.277 69.7764 183.655 76.8096L183.69 77.5216L176.192 80.6898C172.058 82.4318 168.559 83.9034 168.414 83.9445C168.094 84.0549 164.062 78.3742 164.298 78.1556C164.374 78.0864 165.54 77.606 166.884 77.0888C167.733 76.7703 168.578 76.4435 169.42 76.1084C169.472 76.076 169.42 74.7061 169.318 73.0658C169.21 71.4167 169.167 69.9971 169.225 69.9127C169.277 69.8197 169.935 68.9908 170.68 68.0776L172.05 66.4048ZM172.439 71.789C172.37 71.789 172.352 72.1352 172.404 72.5594C172.456 72.9922 172.591 74.3685 172.701 75.6194C172.809 76.8788 172.919 77.9349 172.945 77.9695C173.013 78.0539 179.213 76.2924 179.2 76.195C179.195 76.0825 172.599 71.789 172.439 71.789ZM132.04 80.6486C131.746 80.8045 130.9 82.4275 129.208 85.6693C127.911 88.1644 126.613 90.6466 125.312 93.1353L124.338 94.9856L127.517 92.5077L130.696 90.0407L130.79 88.9327C130.839 88.3332 131.186 86.3033 131.558 84.4271C132.077 81.8021 132.335 80.4928 132.04 80.6486ZM89.6896 121.318C90.1852 121.346 91.2023 121.677 93.4508 122.348C95.9691 123.088 98.5023 123.776 101.049 124.412C103.154 124.928 104.972 125.393 105.083 125.451C105.208 125.518 104.78 126.144 103.873 127.211L102.462 128.866L100.787 133.06L99.1055 137.243L104.195 137.126C107 137.066 109.3 137.007 109.309 136.99C109.318 136.981 109.486 135.393 109.681 133.465C110.002 130.277 110.071 129.922 110.4 129.628C110.601 129.45 111.947 128.438 113.399 127.377L116.028 125.46L118.794 127.421L121.549 129.375L121.845 133.093C121.997 135.14 122.142 136.813 122.157 136.813L126.604 136.763L131.034 136.711L128.379 131.208C126.918 128.191 125.743 125.689 125.775 125.663C125.801 125.629 127.535 125.434 129.63 125.224C133.189 124.867 133.611 124.791 136.165 124.012C137.66 123.558 138.987 123.185 139.108 123.185C139.229 123.185 142.369 126.652 146.089 130.896C154.298 140.245 154.356 140.312 159.952 145.536C170.054 154.98 171.422 156.746 172.904 162.199C173.867 165.729 174.272 166.729 177.739 174.093C179.539 177.912 181.188 181.71 181.814 183.485C182.405 185.173 182.593 184.861 180.147 186.298C179.277 186.807 178.559 187.313 178.559 187.423C178.55 188.058 180.671 188.936 187.713 191.228C196.817 194.186 198.332 195.294 196.209 197.439C194.679 198.982 193.623 199.14 184.839 199.14C175.837 199.14 173.402 198.878 172.396 197.804C171.686 197.051 171.45 197.549 175.135 192.022C176.945 189.326 178.39 187.092 178.364 187.077C178.33 187.051 175.339 187.315 171.703 187.651L165.092 188.285L160.037 187.852C157.256 187.62 154.908 187.363 154.813 187.296C154.72 187.231 151.61 180.94 147.89 173.322L141.127 159.477L130.915 152.985L120.711 146.492L116.47 146.594C114.629 146.629 112.788 146.694 110.949 146.789L109.673 146.888L101.133 156.289L92.6068 165.69L81.9791 175.883L71.3535 186.088L68.1572 186.493L64.9631 186.891L58.3432 185.952C54.7076 185.437 51.7082 185.03 51.6822 185.056C51.6562 185.082 53.2122 187.229 55.1404 189.823C57.0577 192.427 58.6137 194.625 58.5877 194.727C58.5661 194.829 57.9883 195.766 57.3196 196.816L56.0947 198.724L49.6523 198.716C39.8491 198.7 39.6608 198.616 41.0826 195.149C41.7665 193.492 41.9807 193.256 44.5884 191.26C49.107 187.804 50.7192 186.426 51.1239 185.655C51.2537 185.428 50.9378 185.091 49.2823 183.712C48.1829 182.79 47.287 181.92 47.2956 181.775C47.3389 180.955 69.7218 150.405 73.576 145.917C76.333 142.656 79.0193 139.335 81.6328 135.958L85.7922 130.541L87.2875 126.737C87.9028 125.194 88.4915 123.641 89.0534 122.077C89.22 121.558 89.1941 121.288 89.6896 121.318Z" fill="white"/>
</svg>
